# xmcd CD database file
#
# Track frame offsets:
#	301
#	24598
#	58155
#	79274
#	101493
#	132565
#	159891
#	184114
#	208628
#
# Disc length: 3025 seconds
#
# Revision: 0
# Processed by: cddbd v1.5.1PL0 Copyright (c) Steve Scherf et al.
# Submitted via: CDex 1.51
#
DISCID=780bcd09
DTITLE=O D D - Liberté 54
DYEAR=2005
DGENRE=Jazz
TTITLE0=Liberté 54 v.1
TTITLE1=Saga of Harrison Crabfeathers
TTITLE2=Analytique
TTITLE3=L'eau de Jupiter
TTITLE4=Four on six
TTITLE5=Naima
TTITLE6=Nomade
TTITLE7=Black Berry
TTITLE8=Liberté 54
EXTD=YEAR: 2005
EXTT0=
EXTT1=
EXTT2=
EXTT3=
EXTT4=
EXTT5=
EXTT6=
EXTT7=
EXTT8=
PLAYORDER=
